<?xml version="1.0" encoding="utf-8"?>
<!-- Generator: Adobe Illustrator 25.0.0, SVG Export Plug-In . SVG Version: 6.00 Build 0)  -->
<svg version="1.1" id="Layer_1" xmlns="http://www.w3.org/2000/svg" xmlns:xlink="http://www.w3.org/1999/xlink" x="0px" y="0px"
	 viewBox="0 0 50 50" style="enable-background:new 0 0 50 50;" xml:space="preserve">
<style type="text/css">
	.st0{fill:#FAF9F6;}
</style>
<path class="st0" d="M25,2.5C12.6,2.5,2.5,12.6,2.5,25S12.6,47.5,25,47.5S47.5,37.4,47.5,25S37.4,2.5,25,2.5z M25,9.2
	c3.7,0,6.8,3,6.8,6.8s-3,6.8-6.8,6.8s-6.8-3-6.8-6.8S21.3,9.2,25,9.2z M25,41.2c-5.6,0-10.6-2.9-13.5-7.2c0.1-4.5,9-6.9,13.5-6.9
	c4.5,0,13.4,2.5,13.5,6.9C35.6,38.3,30.6,41.2,25,41.2z"/>
</svg>
