<?xml version="1.0" encoding="utf-8"?>
<!-- Generator: Adobe Illustrator 25.0.0, SVG Export Plug-In . SVG Version: 6.00 Build 0)  -->
<svg version="1.1" id="Layer_1" xmlns="http://www.w3.org/2000/svg" xmlns:xlink="http://www.w3.org/1999/xlink" x="0px" y="0px"
	 viewBox="0 0 50 43" style="enable-background:new 0 0 50 43;" xml:space="preserve">
<style type="text/css">
	.st0{fill:#FAF9F6;}
</style>
<g>
	<path class="st0" d="M39.2,30.9c2.8,0,5,2.2,5,5s-2.2,5-5,5c-2.8,0-5-2.2-5-5S36.5,30.9,39.2,30.9 M39.2,28.9c-3.9,0-7,3.1-7,7
		s3.1,7,7,7s7-3.1,7-7S43.1,28.9,39.2,28.9L39.2,28.9z"/>
	<g>
		<path class="st0" d="M39.2,39.6c-0.6,0-1-0.4-1-1v-5.2c0-0.6,0.4-1,1-1c0.6,0,1,0.4,1,1v5.2C40.2,39.1,39.8,39.6,39.2,39.6z"/>
	</g>
	<g>
		<path class="st0" d="M41.8,37h-5.2c-0.6,0-1-0.4-1-1s0.4-1,1-1h5.2c0.6,0,1,0.4,1,1S42.4,37,41.8,37z"/>
	</g>
	<path class="st0" d="M50,26.8c-0.1,0.8-0.1,0.9-1.2,1c-0.3,0.1-1.7,0.1-3.5,0.1c-0.8-1-1.9-2-3.2-2.7c-2.5-1.5-5.6-3-7.8-4
		c0.6-0.2,1.2-0.4,1.4-0.5c1.2-0.2,1.3-0.9,0-3.2c-0.2-0.5-0.7-2.1-0.7-3.7c-0.1-2.7,0.4-4.5,2.8-5.3c2-0.7,4.2,0.2,4.9,1.8
		c0.8,1.7,0.5,6.1-0.4,7.8c-1,1.9-0.8,2.4,0.2,2.7c0.7,0.2,3.1,1.3,5.4,2.6C49.3,24,50.1,25.4,50,26.8z"/>
	<path class="st0" d="M40.9,27.4c0.6,0.3,1.2,0.7,1.6,1.2c-1-0.5-2.1-0.7-3.3-0.7c-4.4,0-8,3.6-8,8.1c-1.8,0-3.6,0-5.5,0
		c-9,0-18.4-0.2-19-0.4c-2.7-0.7-1.2-5.6,2.3-8c2.8-1.8,8.4-4.5,9.9-4.8c2.1-0.4,2.3-1.7,0-5.9c-0.5-0.9-1.2-3.7-1.2-6.7
		c-0.1-4.8,0.9-8.1,5-9.7C23.6,0.1,24.4,0,25.2,0c2.8,0,5.3,1.5,6.3,3.8c1.5,3,0.9,11.1-0.7,14c-1.8,3.2-1.7,4.3,0.4,4.8
		c0.7,0.2,2,0.8,3.8,1.6C36.7,25.2,38.8,26.3,40.9,27.4z"/>
	<path class="st0" d="M5.1,27.9c-2.3,0-4.1-0.1-4.3-0.1c-1.5-0.4-0.7-3.2,1.3-4.4c1.5-1,4.6-2.5,5.5-2.7c1.1-0.2,1.3-0.9,0-3.2
		c-0.3-0.5-0.7-2.1-0.7-3.7C6.8,11,7.4,9.2,9.7,8.4c2-0.7,4.1,0.2,4.9,1.8c0.8,1.7,0.4,6.1-0.5,7.8c-1,1.9-0.8,2.4,0.3,2.7
		c0.2,0.1,0.7,0.3,1.4,0.6c-2.7,1.1-6.3,3.1-8.2,4.3C6.8,26.2,5.9,27.1,5.1,27.9z"/>
</g>
</svg>
