<?xml version="1.0" encoding="utf-8"?>
<!-- Generator: Adobe Illustrator 25.0.0, SVG Export Plug-In . SVG Version: 6.00 Build 0)  -->
<svg version="1.1" id="Layer_1" xmlns="http://www.w3.org/2000/svg" xmlns:xlink="http://www.w3.org/1999/xlink" x="0px" y="0px"
	 viewBox="0 0 25 25" style="enable-background:new 0 0 25 25;" xml:space="preserve">
<style type="text/css">
	.st0{fill:#FAF9F6;}
</style>
<g>
	<g>
		<path class="st0" d="M12.5,16.7c-0.3,0-0.5-0.1-0.7-0.3l-6.5-6.3c-0.4-0.4-0.4-1,0-1.4c0.4-0.4,1.1-0.4,1.5,0l6.5,6.3
			c0.4,0.4,0.4,1,0,1.4C13.1,16.6,12.8,16.7,12.5,16.7z"/>
	</g>
	<g>
		<path class="st0" d="M12.5,16.7c-0.3,0-0.5-0.1-0.7-0.3c-0.4-0.4-0.4-1,0-1.4l6.5-6.4c0.4-0.4,1.1-0.4,1.5,0c0.4,0.4,0.4,1,0,1.4
			l-6.5,6.4C13,16.6,12.8,16.7,12.5,16.7z"/>
	</g>
</g>
</svg>
