<?xml version="1.0" encoding="utf-8"?>
<!-- Generator: Adobe Illustrator 25.0.0, SVG Export Plug-In . SVG Version: 6.00 Build 0)  -->
<svg version="1.1" id="Layer_1" xmlns="http://www.w3.org/2000/svg" xmlns:xlink="http://www.w3.org/1999/xlink" x="0px" y="0px"
	 viewBox="0 0 50 50" style="enable-background:new 0 0 50 50;" xml:space="preserve">
<style type="text/css">
	.st0{fill:#FAF9F6;}
</style>
<path class="st0" d="M47.4,26.1c-1.5,0-2.6,1.2-2.6,2.6v4.9c0,1.3-1.1,2.3-2.3,2.3H8.9l3.5-3.5c1-1.1,1-2.7,0-3.7
	c-1.1-1-2.7-1-3.7,0l-7.9,8c-1,1.1-1,2.7,0,3.7l7.9,8c1,1,2.7,1,3.7,0c1-1.1,1-2.7,0-3.7l-3.5-3.5h33.4c4.2,0,7.5-3.3,7.6-7.5v-5
	c0.1-1.4-0.9-2.5-2.3-2.6C47.5,26.1,47.4,26.1,47.4,26.1L47.4,26.1z M49.3,9.4l-7.9-8c-1.1-1-2.7-1-3.7,0c-1,1.1-1,2.7,0,3.7
	l3.5,3.5H7.6C3.5,8.6,0,11.9,0,16.1v5c0,1.5,1.2,2.6,2.6,2.6c1.5,0,2.6-1.2,2.6-2.6v-5c0-1.3,1.1-2.3,2.3-2.3h33.5l-3.5,3.5
	c-1,1.1-1,2.7,0,3.7c1,1,2.7,1,3.7,0l7.9-8C50.2,12,50.2,10.4,49.3,9.4z"/>
</svg>
