<?xml version="1.0" encoding="utf-8"?>
<!-- Generator: Adobe Illustrator 25.0.0, SVG Export Plug-In . SVG Version: 6.00 Build 0)  -->
<svg version="1.1" id="Layer_1" xmlns="http://www.w3.org/2000/svg" xmlns:xlink="http://www.w3.org/1999/xlink" x="0px" y="0px"
	 viewBox="0 0 16 16" style="enable-background:new 0 0 16 16;" xml:space="preserve">
<style type="text/css">
	.st0{fill:#FAF9F6;}
</style>
<g>
	<g>
		<path class="st0" d="M14.7,16c-0.3,0-0.6-0.1-0.9-0.4L0.4,2.2c-0.5-0.5-0.5-1.3,0-1.8c0.5-0.5,1.3-0.5,1.8,0l13.5,13.5
			c0.5,0.5,0.5,1.3,0,1.8C15.4,15.9,15.1,16,14.7,16z"/>
	</g>
	<g>
		<path class="st0" d="M1.3,16c-0.3,0-0.6-0.1-0.9-0.4c-0.5-0.5-0.5-1.3,0-1.8L13.8,0.4c0.5-0.5,1.3-0.5,1.8,0
			c0.5,0.5,0.5,1.3,0,1.8L2.2,15.6C1.9,15.9,1.6,16,1.3,16z"/>
	</g>
</g>
</svg>
