<svg id="Layer_1" data-name="Layer 1" xmlns="http://www.w3.org/2000/svg" viewBox="0 0 50 50"><defs><style>.cls-1{fill:#faf9f6;}</style></defs><path class="cls-1" d="M25,.9C11.2.9,0,10.9,0,23.1A21,21,0,0,0,7.8,39.2a9.39,9.39,0,0,1-1.4,2.6L1.3,48.9l8.8.2A16.17,16.17,0,0,0,20.8,45a28.28,28.28,0,0,0,4.1.3c13.8,0,25-10,25-22.2S38.8.9,25,.9Zm0,39a23.52,23.52,0,0,1-5.4-.6l-.5-.1-.4.4a13.08,13.08,0,0,1-7,3.7,13.72,13.72,0,0,0,1.6-3.7,9.28,9.28,0,0,0,.4-2.3v-.5l-.4-.3c-4.9-3.1-7.9-8-7.9-13.5C5.5,14,14.1,6.4,25,6.4S44.5,14,44.5,23.2,35.9,39.9,25,39.9Z"/></svg>