<?xml version="1.0" encoding="utf-8"?>
<!-- Generator: Adobe Illustrator 25.0.0, SVG Export Plug-In . SVG Version: 6.00 Build 0)  -->
<svg version="1.1" id="Layer_1" xmlns="http://www.w3.org/2000/svg" xmlns:xlink="http://www.w3.org/1999/xlink" x="0px" y="0px"
	 viewBox="0 0 32 32" style="enable-background:new 0 0 32 32;" xml:space="preserve">
<style type="text/css">
	.st0{fill:#FAF9F6;}
	.st1{fill:#676C78;}
	.st2{fill:#3F4249;}
</style>
<g>
	<path class="st0" d="M7.1,22.3c-3.5,0-6.3-2.8-6.3-6.3s2.8-6.3,6.3-6.3h17.8c3.5,0,6.3,2.8,6.3,6.3s-2.8,6.3-6.3,6.3H7.1z"/>
	<path class="st1" d="M24.9,10c3.3,0,6,2.7,6,6s-2.7,6-6,6H7.1c-3.3,0-6-2.7-6-6s2.7-6,6-6H24.9 M24.9,9.4H7.1c-3.7,0-6.6,3-6.6,6.6
		s2.9,6.6,6.6,6.6h17.8c3.6,0,6.6-2.9,6.6-6.6C31.5,12.4,28.6,9.4,24.9,9.4L24.9,9.4z"/>
	<circle class="st2" cx="25" cy="16" r="5.1"/>
	<path class="st0" d="M24.8,12.1c-2.3,0.3-4.1,2.4-3.8,4.8c0.1,0.5,0.2,1.1,0.5,1.6c1.5,2.4,5.7,2.2,7.4-0.3c-1.9,0.8-4.1-0.2-4.8-2
		C23.6,14.6,23.8,13.1,24.8,12.1z"/>
	<polygon class="st0" points="27,12.7 27,13.2 27.5,13.5 27,13.5 26.9,13.9 26.8,13.4 26.4,13.2 26.9,13.2 	"/>
	<polygon class="st0" points="25.3,14.6 25.3,15.1 25.8,15.3 25.3,15.3 25.1,15.8 25.1,15.3 24.6,15.1 25.1,15 	"/>
	<polygon class="st0" points="27.3,15.7 27.5,16.1 28,16.2 27.5,16.4 27.4,16.9 27.3,16.4 26.9,16.3 27.3,16.1 	"/>
</g>
</svg>
