<?xml version="1.0" encoding="utf-8"?>
<!-- Generator: Adobe Illustrator 25.0.0, SVG Export Plug-In . SVG Version: 6.00 Build 0)  -->
<svg version="1.1" id="Layer_1" xmlns="http://www.w3.org/2000/svg" xmlns:xlink="http://www.w3.org/1999/xlink" x="0px" y="0px"
	 viewBox="0 0 16 16" style="enable-background:new 0 0 16 16;" xml:space="preserve">
<style type="text/css">
	.st0{fill-rule:evenodd;clip-rule:evenodd;fill:#FAF9F6;}
	.st1{fill:#FAF9F6;}
</style>
<g>
	<path class="st0" d="M14.1,15c-0.7,0-1.3-0.4-1.7-1l0-0.1l-0.1,0c-0.2,0.1-0.4,0.2-0.6,0.3c-1.2,0.5-2.6,0.7-4,0.7
		c-1.3,0-2.7-0.4-4.3-1.3C2,13,1,12.2,0.4,11.7c-0.4-0.3-0.6-0.9-0.4-1.4l0.2-0.5C0.5,9.3,1,9,1.5,9C1.7,9,1.9,9,2.1,9.1
		c0.6,0.3,1.5,0.8,2.3,1.1l0.1,0l0.3-0.9C5,8.8,5.5,8.5,6,8.5c0.1,0,0.2,0,0.3,0C7,8.7,8.7,9,9.6,9c0.6,0,1.4-0.2,1.9-0.3
		c0.2-0.1,0.4-0.1,0.6-0.2C12.4,7.6,13.2,7,14.1,7C15.1,7,16,7.9,16,8.9V13C16,14.1,15.1,15,14.1,15z M14.1,8.2
		c-0.4,0-0.8,0.3-0.8,0.8V13c0,0.4,0.3,0.8,0.8,0.8c0.4,0,0.8-0.3,0.8-0.8V8.9C14.8,8.5,14.5,8.2,14.1,8.2z M1.1,10.8L1.1,10.8
		c0.5,0.4,1.5,1.2,2.7,1.8c1.4,0.8,2.7,1.2,3.8,1.2c2.4,0,3.9-0.7,4.5-1.1l0-3l-0.1,0c-0.9,0.3-1.7,0.4-2.4,0.4
		c-1,0-2.7-0.3-3.6-0.6L6,9.6l-0.3,0.9l2.7,0.7c0.1,0,0.2,0.1,0.3,0.2c0.1,0.1,0.1,0.2,0,0.4c-0.1,0.2-0.2,0.3-0.4,0.3
		c-1-0.2-2.7-0.5-3.5-0.7c-1.1-0.3-2.3-0.8-3.2-1.3l-0.1,0L1.1,10.8z"/>
	<path class="st1" d="M7.9,7.7c-0.2,0-0.3-0.1-0.4-0.2L5.5,5.5c-0.2-0.2-0.2-0.6,0-0.8c0.1-0.1,0.3-0.2,0.4-0.2
		c0.2,0,0.3,0.1,0.4,0.2l1.1,1.1V1.6C7.3,1.3,7.6,1,7.9,1c0.3,0,0.6,0.3,0.6,0.6v4.1l1.1-1.1C9.7,4.5,9.8,4.5,10,4.5
		c0.2,0,0.3,0.1,0.4,0.2c0.1,0.1,0.2,0.3,0.2,0.4s-0.1,0.3-0.2,0.4L8.4,7.6C8.2,7.7,8.1,7.7,7.9,7.7z"/>
</g>
</svg>
