<?xml version="1.0" encoding="utf-8"?>
<!-- Generator: Adobe Illustrator 25.0.0, SVG Export Plug-In . SVG Version: 6.00 Build 0)  -->
<svg version="1.1" id="Layer_1" xmlns="http://www.w3.org/2000/svg" xmlns:xlink="http://www.w3.org/1999/xlink" x="0px" y="0px"
	 viewBox="0 0 16 16" style="enable-background:new 0 0 16 16;" xml:space="preserve">
<style type="text/css">
	.st0{fill:#FAF9F6;}
</style>
<path class="st0" d="M8,0.6c-0.3,0-0.6,0.1-0.9,0.3L0.3,6.7C0,6.9-0.1,7.2,0.1,7.5c0.2,0.4,0.7,0.4,1,0.2l0.2-0.2v6.1
	c0,0.9,0.7,1.7,1.7,1.7h10c0.9,0,1.7-0.7,1.7-1.7V7.5l0.2,0.2c0.1,0.1,0.3,0.2,0.4,0.2c0.2,0,0.5-0.1,0.6-0.4
	c0.2-0.3,0.1-0.6-0.2-0.8l-1.1-0.9V2.9c0-0.4-0.3-0.7-0.7-0.7h-0.7c-0.4,0-0.7,0.3-0.7,0.7v1.2L8.9,0.9C8.6,0.7,8.3,0.6,8,0.6z M8,2
	c0,0,0.1,0,0.1,0l5.2,4.4v6.9c0,0.4-0.3,0.7-0.7,0.7H10V9.3c0-0.4-0.3-0.7-0.7-0.7H6.7C6.3,8.6,6,8.9,6,9.3v4.7H3.3
	c-0.4,0-0.7-0.3-0.7-0.7V6.4L7.9,2C7.9,2,8,2,8,2z"/>
</svg>
