<?xml version="1.0" encoding="utf-8"?>
<!-- Generator: Adobe Illustrator 25.0.0, SVG Export Plug-In . SVG Version: 6.00 Build 0)  -->
<svg version="1.1" id="Layer_1" xmlns="http://www.w3.org/2000/svg" xmlns:xlink="http://www.w3.org/1999/xlink" x="0px" y="0px"
	 viewBox="0 0 32 32" style="enable-background:new 0 0 32 32;" xml:space="preserve">
<style type="text/css">
	.st0{fill:#464850;}
	.st1{fill:#D4D4D1;}
	.st2{fill:#FAF9F6;}
</style>
<g>
	<path class="st0" d="M6.7,9.7h18.6c3.3,0,5.9,2.6,5.9,5.9v0.8c0,3.3-2.6,5.9-5.9,5.9l0,0H6.7c-3.3,0-5.9-2.7-5.9-5.9v-0.8
		C0.8,12.3,3.4,9.7,6.7,9.7z"/>
	<path class="st1" d="M25.3,10c3.1,0,5.7,2.5,5.7,5.6l0,0v0.7c0,3.1-2.5,5.7-5.6,5.7l0,0H6.7C3.6,22,1,19.5,1,16.4l0,0v-0.7
		C1,12.6,3.5,10,6.6,10l0,0L25.3,10 M25.3,9.4H6.7c-3.4,0-6.2,2.8-6.2,6.2v0.7c0,3.4,2.8,6.2,6.2,6.2h18.6c3.4,0,6.2-2.8,6.2-6.2
		v-0.7C31.5,12.2,28.7,9.4,25.3,9.4z"/>
	<circle class="st2" cx="7.4" cy="16" r="5.1"/>
	<circle class="st0" cx="7.4" cy="16" r="2.6"/>
	<path class="st0" d="M7.4,13L7.4,13c-0.1,0-0.2-0.1-0.2-0.2l0,0v-0.9c0-0.1,0.1-0.2,0.1-0.2l0,0l0,0c0.1,0,0.2,0.1,0.2,0.2v0.9
		C7.5,12.9,7.5,13,7.4,13z"/>
	<path class="st0" d="M7.4,20.2L7.4,20.2c-0.1,0-0.2-0.1-0.2-0.2l0,0v-0.9c0-0.1,0.1-0.2,0.2-0.2l0,0l0,0c0.1,0,0.2,0.1,0.2,0.2l0,0
		V20C7.5,20.1,7.5,20.2,7.4,20.2L7.4,20.2z"/>
	<path class="st0" d="M10.4,16L10.4,16c0-0.1,0.1-0.2,0.2-0.2h0.9c0.1,0,0.2,0.1,0.2,0.2l0,0c0,0.1-0.1,0.2-0.2,0.2l0,0h-0.9
		C10.4,16.2,10.4,16.1,10.4,16L10.4,16z"/>
	<path class="st0" d="M3.2,16L3.2,16c0-0.1,0.1-0.2,0.2-0.2h0.9c0.1,0,0.2,0,0.2,0.1c0,0,0,0,0,0.1l0,0c0,0.1-0.1,0.2-0.2,0.2l0,0
		H3.4C3.3,16.2,3.2,16.1,3.2,16L3.2,16z"/>
	<path class="st0" d="M9.5,13.9L9.5,13.9c-0.1-0.1-0.1-0.2,0-0.2l0.6-0.6c0.1-0.1,0.2-0.1,0.2,0l0,0c0.1,0.1,0.1,0.2,0,0.3L9.7,14
		C9.6,14,9.5,14,9.5,13.9L9.5,13.9z"/>
	<path class="st0" d="M4.5,19L4.5,19c-0.1-0.1-0.1-0.2,0-0.3l0,0l0.6-0.6c0.1-0.1,0.2-0.1,0.3,0l0,0l0,0c0.1,0.1,0.1,0.2,0,0.2
		l-0.6,0.6C4.6,19,4.5,19,4.5,19z"/>
	<path class="st0" d="M5.2,13.9L5.2,13.9c-0.1,0.1-0.2,0.1-0.2,0l-0.6-0.6c0-0.1,0-0.1,0-0.2l0,0c0.1-0.1,0.2-0.1,0.3,0l0,0l0.6,0.6
		C5.3,13.8,5.3,13.9,5.2,13.9z"/>
	<path class="st0" d="M10.3,18.9L10.3,18.9c0,0-0.1,0-0.2,0l-0.6-0.6c-0.1-0.1-0.1-0.2,0-0.3l0,0l0,0c0.1-0.1,0.2-0.1,0.2,0l0.6,0.6
		C10.4,18.7,10.4,18.8,10.3,18.9z"/>
</g>
</svg>
