<?xml version="1.0" encoding="utf-8"?>
<!-- Generator: Adobe Illustrator 25.0.0, SVG Export Plug-In . SVG Version: 6.00 Build 0)  -->
<svg version="1.1" id="Layer_1" xmlns="http://www.w3.org/2000/svg" xmlns:xlink="http://www.w3.org/1999/xlink" x="0px" y="0px"
	 viewBox="0 0 40 40" style="enable-background:new 0 0 40 40;" xml:space="preserve">
<style type="text/css">
	.st0{fill:#FAF9F6;}
	.st1{fill:#6D6982;}
</style>
<path id="XMLID_00000059268641930992004520000006509032639893579679_" class="st0" d="M20,3.7c2.2,0,4.3,0.4,6.3,1.3
	c1.9,0.8,3.7,2,5.2,3.5c1.5,1.5,2.7,3.2,3.5,5.2c0.8,2,1.3,4.1,1.3,6.3s-0.4,4.3-1.3,6.3c-0.8,1.9-2,3.7-3.5,5.2
	C30,33,28.3,34.2,26.3,35c-2,0.8-4.1,1.3-6.3,1.3s-4.3-0.4-6.3-1.3c-1.9-0.8-3.7-2-5.2-3.5C7,30,5.8,28.3,5,26.3
	c-0.8-2-1.3-4.1-1.3-6.3s0.4-4.3,1.3-6.3c0.8-1.9,2-3.7,3.5-5.2C10,7,11.7,5.8,13.7,5C15.7,4.1,17.8,3.7,20,3.7 M20,0C9,0,0,9,0,20
	s9,20,20,20s20-9,20-20S31,0,20,0L20,0z"/>
<g>
	<polygon class="st1" points="10.9,10.9 8,14.4 8,16.3 10,16.3 10,29.1 14.2,29.1 14.2,10.9 	"/>
	<path class="st1" d="M32,17.3c0-3.5-2.9-6.4-6.5-6.4c-1.8,0-3.4,0.7-4.5,1.9c-1.2-1.1-2.9-1.8-4.7-1.9c0,0,0,0,0,0
		c-0.5,0-0.9,0.1-1.4,0.2v4.4h0c0.4-0.4,0.9-0.6,1.5-0.7c0.2,0,0.4,0,0.6,0.1c0.5,0.1,1,0.4,1.3,0.8c0,0,0,0,0,0
		c0.3,0.4,0.4,0.8,0.4,1.3v0.7v11.3H23V17.3c0-0.5,0.2-1,0.5-1.4c0.4-0.6,1.2-0.9,1.9-0.9s1.5,0.4,1.9,0.9c0,0,0,0,0,0
		c0.3,0.4,0.4,0.8,0.4,1.3v0.7v11.3H32L32,17.3L32,17.3z"/>
</g>
</svg>
