<?xml version="1.0" encoding="utf-8"?>
<!-- Generator: Adobe Illustrator 25.0.0, SVG Export Plug-In . SVG Version: 6.00 Build 0)  -->
<svg version="1.1" id="Layer_1" xmlns="http://www.w3.org/2000/svg" xmlns:xlink="http://www.w3.org/1999/xlink" x="0px" y="0px"
	 viewBox="0 0 32 32" style="enable-background:new 0 0 32 32;" xml:space="preserve">
<style type="text/css">
	.st0{fill:#FAF9F6;}
</style>
<g>
	<path class="st0" d="M30.8,6.2H1.2C0.6,6.2,0,5.6,0,5v0c0-0.7,0.6-1.2,1.2-1.2h29.5c0.7,0,1.2,0.6,1.2,1.2v0
		C32,5.6,31.4,6.2,30.8,6.2z"/>
	<path class="st0" d="M30.8,17.2H1.2C0.6,17.2,0,16.7,0,16v0c0-0.7,0.6-1.2,1.2-1.2h29.5c0.7,0,1.2,0.6,1.2,1.2v0
		C32,16.7,31.4,17.2,30.8,17.2z"/>
	<path class="st0" d="M30.8,28.3H1.2c-0.7,0-1.2-0.6-1.2-1.2v0c0-0.7,0.6-1.2,1.2-1.2h29.5c0.7,0,1.2,0.6,1.2,1.2v0
		C32,27.7,31.4,28.3,30.8,28.3z"/>
</g>
</svg>
