<?xml version="1.0" encoding="utf-8"?>
<!-- Generator: Adobe Illustrator 28.0.0, SVG Export Plug-In . SVG Version: 6.00 Build 0)  -->
<svg version="1.1" id="Layer_1" xmlns="http://www.w3.org/2000/svg" xmlns:xlink="http://www.w3.org/1999/xlink" x="0px" y="0px"
	 viewBox="0 0 640 640" style="enable-background:new 0 0 640 640;" xml:space="preserve">
<style type="text/css">
	.st0{fill:#FAF9F6;}
</style>
<path class="st0" d="M114.3,0C76.4,0,45.7,30.7,45.7,68.6v502.9c0,37.9,30.7,68.6,68.6,68.6h91.4c37.9,0,68.6-30.7,68.6-68.6V68.6
	c0-37.9-30.7-68.6-68.6-68.6H114.3z M434.3,0c-37.9,0-68.6,30.7-68.6,68.6v502.9c0,37.9,30.7,68.6,68.6,68.6h91.4
	c37.9,0,68.6-30.7,68.6-68.6V68.6c0-37.9-30.7-68.6-68.6-68.6H434.3z"/>
</svg>
