<?xml version="1.0" encoding="utf-8"?>
<!-- Generator: Adobe Illustrator 25.0.0, SVG Export Plug-In . SVG Version: 6.00 Build 0)  -->
<svg version="1.1" id="Layer_1" xmlns="http://www.w3.org/2000/svg" xmlns:xlink="http://www.w3.org/1999/xlink" x="0px" y="0px"
	 viewBox="0 0 50 40" style="enable-background:new 0 0 50 40;" xml:space="preserve">
<style type="text/css">
	.st0{fill:#FAF9F6;}
</style>
<g>
	<path class="st0" d="M46.6,0.6c-1.9-0.8-4.1-0.8-7.1,0.2C37.3,1.5,15.2,10.3,5.8,14l-0.2,0.1c-2,0.8-5.6,2.2-5.6,5.8
		c0,2.4,1.5,4.1,4.3,5c1.5,0.5,4.9,1.4,6.8,2c2.3,0.6,5.1,0.4,7.3-0.5c0,0,0,0.1,0,0.1c0.2,1.8,1.4,3.6,3.2,4.6
		c1.1,0.6,9.9,6.1,11.2,7c1.9,1.3,4.1,2,6.2,2c4.2,0,5.6-4.1,6.2-5.8c0.9-2.6,4.3-23.8,4.7-27.5C50.2,3.9,49,1.6,46.6,0.6z M39,35.8
		c-1.2,0-2.5-0.4-3.6-1.2C34,33.7,25.1,28.1,24,27.5c-0.5-0.3-1.1-0.9-1.2-1.6c0-0.5,0.2-1,0.6-1.4c0.8-0.8,4.9-4.5,8.2-7.5
		c2-1.8,3.7-3.4,4-3.7c0.5-0.4,0.6-1,0.4-1.5c-0.2-0.4-0.6-0.7-1.1-0.7c-0.3,0-0.7,0.1-1,0.4c-1,0.8-15.5,9.9-16.8,10.6
		c-1.2,0.7-3.3,1-4.8,0.6c-1.8-0.5-5.2-1.4-6.5-1.9c-1.3-0.4-1.4-0.7-1.4-1.1c0-0.8,1.9-1.6,2.9-1.9C10.5,16.7,38.7,5.5,41,4.7
		c1.7-0.6,3-0.7,3.8-0.4c0.6,0.3,0.9,0.9,0.8,1.9c-0.4,4.2-3.8,24.7-4.5,26.6C40.4,34.7,39.9,35.8,39,35.8z"/>
</g>
</svg>
