<?xml version="1.0" encoding="utf-8"?>
<!-- Generator: Adobe Illustrator 25.0.0, SVG Export Plug-In . SVG Version: 6.00 Build 0)  -->
<svg version="1.1" id="Layer_1" xmlns="http://www.w3.org/2000/svg" xmlns:xlink="http://www.w3.org/1999/xlink" x="0px" y="0px"
	 viewBox="0 0 32 55" style="enable-background:new 0 0 32 55;" xml:space="preserve">
<style type="text/css">
	.st0{fill:#FAF9F6;}
	.st1{fill:#515661;}
</style>
<g>
	<path class="st0" d="M28.4,48.6v-8.2c0-0.5-0.4-0.8-0.8-0.8h-4.4c-0.3,0-0.5-0.2-0.5-0.5v-3c0-0.3,0.2-0.5,0.5-0.5h4.1
		c0.5,0,0.8-0.4,0.8-0.8v-8.4c0-0.5-0.4-0.8-0.8-0.8H4.9c-0.4,0-0.8,0.4-0.8,0.8v8.3c0,0.5,0.4,0.8,0.8,0.8H9c0.3,0,0.5,0.2,0.5,0.5
		v3c0,0.3-0.2,0.5-0.5,0.5H4.6c-0.5,0-0.8,0.4-0.8,0.8v8.2c0,0.3-0.2,0.5-0.5,0.5H0.9c-0.5,0-0.8,0.4-0.8,0.8v4.3
		c0,0.5,0.4,0.8,0.8,0.8h7.3c0.5,0,0.8-0.4,0.8-0.8v-4.3C9,49.3,8.6,49,8.2,49H5.9c-0.3,0-0.5-0.2-0.5-0.5v-6.9
		c0-0.3,0.2-0.5,0.5-0.5h4.4c0.5,0,0.8-0.4,0.8-0.8V36c0-0.3,0.2-0.5,0.5-0.5h3.1c0.3,0,0.5,0.2,0.5,0.5v12.2c0,0.5-0.4,0.8-0.8,0.8
		h-2c-0.5,0-0.8,0.4-0.8,0.8v4.3c0,0.5,0.4,0.8,0.8,0.8h7.3c0.5,0,0.8-0.4,0.8-0.8v-4.3c0-0.5-0.4-0.8-0.8-0.8h-2
		c-0.5,0-0.8-0.4-0.8-0.8V36.1c0-0.3,0.2-0.5,0.5-0.5h3.1c0.3,0,0.5,0.2,0.5,0.5v4.3c0,0.5,0.4,0.8,0.8,0.8h4.4
		c0.3,0,0.5,0.2,0.5,0.5v6.9c0,0.3-0.2,0.5-0.5,0.5h-2.4c-0.5,0-0.8,0.4-0.8,0.8v4.3c0,0.5,0.4,0.8,0.8,0.8h7.3
		c0.5,0,0.8-0.4,0.8-0.8v-4.3c0-0.5-0.4-0.8-0.8-0.8h-2.4C28.6,49.1,28.4,48.9,28.4,48.6z M7.5,51.2V53c0,0.3-0.2,0.5-0.5,0.5H2.2
		c-0.3,0-0.5-0.2-0.5-0.5v-1.8c0-0.3,0.2-0.5,0.5-0.5H7C7.3,50.7,7.5,51,7.5,51.2z M19,51.2V53c0,0.3-0.2,0.5-0.5,0.5h-4.8
		c-0.3,0-0.5-0.2-0.5-0.5v-1.8c0-0.3,0.2-0.5,0.5-0.5h4.8C18.8,50.7,19,51,19,51.2z M5.7,33.5v-5.8c0-0.3,0.2-0.5,0.5-0.5H26
		c0.3,0,0.5,0.2,0.5,0.5v5.8c0,0.3-0.2,0.5-0.5,0.5H6.2C5.9,34,5.7,33.8,5.7,33.5z M30,53.5h-4.8c-0.3,0-0.5-0.2-0.5-0.5v-1.8
		c0-0.3,0.2-0.5,0.5-0.5H30c0.3,0,0.5,0.2,0.5,0.5V53C30.5,53.3,30.3,53.5,30,53.5z"/>
	<path class="st0" d="M15.2,30.6c0,0.4-0.4,0.8-0.8,0.8H8c-0.4,0-0.8-0.4-0.8-0.8s0.4-0.8,0.8-0.8h6.4
		C14.8,29.8,15.2,30.2,15.2,30.6z"/>
	<circle class="st0" cx="17.8" cy="30.6" r="0.8"/>
	<path class="st0" d="M25,30.6c0,0.4-0.4,0.8-0.8,0.8s-0.8-0.4-0.8-0.8s0.4-0.8,0.8-0.8S25,30.2,25,30.6z"/>
	<path class="st0" d="M21.8,30.6c0,0.4-0.4,0.8-0.8,0.8s-0.8-0.4-0.8-0.8s0.4-0.8,0.8-0.8S21.8,30.2,21.8,30.6z"/>
</g>
<g>
	<circle class="st1" cx="16" cy="8.5" r="8.5"/>
	<g>
		<g>
			<g>
				<path class="st0" d="M14.7,14.1c-0.2,0-0.5-0.1-0.7-0.3l-3.3-3.3c-0.4-0.4-0.4-1.1,0-1.5s1.1-0.4,1.5,0l3.3,3.3
					c0.4,0.4,0.4,1.1,0,1.5C15.2,14,14.9,14.1,14.7,14.1z"/>
			</g>
			<g>
				<path class="st0" d="M14.7,14.1c-0.2,0-0.4-0.1-0.5-0.2c-0.5-0.3-0.6-0.9-0.3-1.5l4.6-7.9c0.3-0.5,0.9-0.6,1.4-0.4
					c0.5,0.3,0.6,0.9,0.4,1.5l-4.7,7.9C15.4,14,15,14.1,14.7,14.1z"/>
			</g>
		</g>
	</g>
</g>
</svg>
