<?xml version="1.0" encoding="utf-8"?>
<!-- Generator: Adobe Illustrator 28.0.0, SVG Export Plug-In . SVG Version: 6.00 Build 0)  -->
<svg version="1.1" id="Layer_1" xmlns="http://www.w3.org/2000/svg" xmlns:xlink="http://www.w3.org/1999/xlink" x="0px" y="0px"
	 viewBox="0 0 640 640" style="enable-background:new 0 0 640 640;" xml:space="preserve">
<style type="text/css">
	.st0{fill:#FAF9F6;}
	.st1{fill:#28A745;}
</style>
<g>
	<g>
		<path class="st0" d="M480.7,241.9c4.2,0,7,2,8.7,3.6c1.6,1.6,3.5,4.5,3.5,8.7v0.1v0.1v64.3c0,6.8-5.5,12.4-12.4,12.4H159.3
			c-6.8,0-12.4-5.5-12.4-12.4v-64.3c0-6.8,5.5-12.4,12.4-12.4L480.7,241.9 M480.7,190H159.3c-35.5,0-64.3,28.8-64.3,64.3v64.3
			c0,35.4,28.8,64.3,64.3,64.3h321.4c35.4,0,64.3-28.8,64.3-64.3v-64.3C545,218.8,516.2,190,480.7,190L480.7,190z"/>
	</g>
	<g>
		<path class="st0" d="M159.3,499l321.4,0.1c6.8,0,12.4,5.5,12.4,12.4v64.3c0,6.8-5.5,12.4-12.4,12.4H159.3
			c-6.8,0-12.4-5.5-12.4-12.4v-64.3C146.9,504.6,152.5,499,159.3,499 M159.3,447.1c-35.4,0-64.3,28.8-64.3,64.3v64.3
			c0,35.5,28.8,64.3,64.3,64.3h321.4c35.5,0,64.3-28.8,64.3-64.3v-64.3c0-35.4-28.8-64.3-64.3-64.3L159.3,447.1L159.3,447.1z"/>
	</g>
	<g>
		<path class="st0" d="M480.7,543.6c0,13.3-10.7,24.1-24.1,24.1c-13.3-0.1-24.1-10.7-24.1-24.1s10.7-24.1,24.1-24.1
			S480.7,530.3,480.7,543.6z"/>
	</g>
	<g>
		
			<ellipse transform="matrix(1 -1.958890e-03 1.958890e-03 1 -1.0641 0.7381)" class="st0" cx="376.3" cy="543.6" rx="24.1" ry="24.1"/>
	</g>
	<g>
		<ellipse class="st0" cx="456.6" cy="286.4" rx="24.1" ry="24.1"/>
	</g>
	<g>
		<path class="st0" d="M400.3,286.5c0,13.3-10.7,24.1-24.1,24.1c-13.3,0-24.1-10.7-24.1-24.1s10.7-24.1,24.1-24.1
			C389.6,262.3,400.3,273.1,400.3,286.5z"/>
	</g>
</g>
<path class="st1" d="M356.6,4.9l-0.7-0.5L355,4c-5.3-2.6-11.4-4-17.5-4h0c-14,0-27,6.9-34.8,18.3l-0.2,0.4l-0.2,0.4l-92.5,157
	L162.6,128c-7.1-7.3-17.4-11.4-28.2-11.4c-10.7,0-20.9,4.1-28.1,11.3c-7.2,7.1-11.3,17.2-11.3,27.9c0,10.7,4.1,21,11.3,28.3
	l79.6,79.5c2.8,4,6.3,7.5,10.6,10.4l0.7,0.5l0.5,0.2c5.6,3.5,12.5,5.4,20,5.4c8.9,0,17-2.7,23-7.5c3.4-2.5,6.4-5.7,8.7-9.8
	c1.3-1.9,2.5-4,3.4-6.2L370.4,60.1l0.5-0.8l0.4-0.8C379.7,38.8,373.5,16.3,356.6,4.9z"/>
</svg>
