<?xml version="1.0" encoding="utf-8"?>
<!-- Generator: Adobe Illustrator 28.0.0, SVG Export Plug-In . SVG Version: 6.00 Build 0)  -->
<svg version="1.1" id="Layer_1" xmlns="http://www.w3.org/2000/svg" xmlns:xlink="http://www.w3.org/1999/xlink" x="0px" y="0px"
	 viewBox="0 0 640 640" style="enable-background:new 0 0 640 640;" xml:space="preserve">
<style type="text/css">
	.st0{fill:#FAF9F6;}
</style>
<g>
	<g>
		<path class="st0" d="M548.7,60c11.3,0,18.7,5.8,22.2,9.2c3.4,3.4,9.2,10.9,9.1,22.1l0,0.1v0.1v91.4c0,17.3-14.1,31.4-31.4,31.4
			H91.4c-17.3,0-31.4-14.1-31.4-31.4V91.4C60,74.1,74.1,60,91.4,60H548.7 M548.7,0H91.4C41,0,0,41,0,91.4v91.4
			c0,50.4,41,91.4,91.4,91.4h457.2c50.4,0,91.4-41,91.4-91.4V91.4C640.1,41,599.1,0,548.7,0L548.7,0z"/>
	</g>
	<g>
		<path class="st0" d="M91.4,425.7l457.2,0.1c17.3,0,31.4,14.1,31.4,31.4v91.4c0,17.3-14.1,31.4-31.4,31.4H91.4
			C74.1,580,60,565.9,60,548.5v-91.4C60,439.8,74.1,425.7,91.4,425.7 M91.4,365.7C41,365.7,0,406.7,0,457.1v91.4
			C0,599,41,640,91.4,640h457.2c50.4,0,91.4-41,91.4-91.4v-91.4c0-50.4-41-91.4-91.4-91.4L91.4,365.7L91.4,365.7z"/>
	</g>
	<g>
		<path class="st0" d="M548.7,502.9c0,19-15.3,34.3-34.3,34.3c-19-0.1-34.3-15.3-34.3-34.3s15.3-34.3,34.3-34.3
			C533.4,468.6,548.7,483.9,548.7,502.9z"/>
	</g>
	<g>
		
			<ellipse transform="matrix(0.8345 -0.551 0.551 0.8345 -210.8768 303.6566)" class="st0" cx="400.1" cy="502.9" rx="34.3" ry="34.3"/>
	</g>
	<g>
		
			<ellipse transform="matrix(0.8774 -0.4798 0.4798 0.8774 -2.7026 263.6308)" class="st0" cx="514.4" cy="137.1" rx="34.3" ry="34.3"/>
	</g>
	<g>
		<path class="st0" d="M434.4,137.2c0,19-15.3,34.2-34.3,34.2s-34.3-15.3-34.3-34.3s15.3-34.2,34.3-34.2S434.4,118.2,434.4,137.2z"
			/>
	</g>
</g>
</svg>
