<?xml version="1.0" encoding="utf-8"?>
<!-- Generator: Adobe Illustrator 28.0.0, SVG Export Plug-In . SVG Version: 6.00 Build 0)  -->
<svg version="1.1" id="Layer_1" xmlns="http://www.w3.org/2000/svg" xmlns:xlink="http://www.w3.org/1999/xlink" x="0px" y="0px"
	 viewBox="0 0 640 640" style="enable-background:new 0 0 640 640;" xml:space="preserve">
<style type="text/css">
	.st0{fill:#FAF9F6;}
	.st1{fill:#28A745;}
</style>
<g>
	<g>
		<path class="st0" d="M505.8,180c4.8,0,8.1,2.3,10,4.2c1.9,1.9,4.1,5.2,4.1,10l0,0.1v0.1v74.3c0,7.9-6.4,14.3-14.3,14.3H134.3
			c-7.9,0-14.3-6.4-14.3-14.3v-74.3c0-7.9,6.4-14.3,14.3-14.3H505.8 M505.8,120H134.3c-41,0-74.3,33.3-74.3,74.3v74.3
			c0,40.9,33.3,74.3,74.3,74.3h371.5c40.9,0,74.3-33.3,74.3-74.3v-74.3C580.1,153.3,546.8,120,505.8,120L505.8,120z"/>
	</g>
	<g>
		<path class="st0" d="M134.3,477.1l371.5,0.1c7.9,0,14.3,6.4,14.3,14.3v74.3c0,7.9-6.4,14.3-14.3,14.3H134.3
			c-7.9,0-14.3-6.4-14.3-14.3v-74.3C120,483.5,126.4,477.1,134.3,477.1 M134.3,417.1c-40.9,0-74.3,33.3-74.3,74.3v74.3
			c0,41,33.3,74.3,74.3,74.3h371.5c41,0,74.3-33.3,74.3-74.3v-74.3c0-40.9-33.3-74.3-74.3-74.3L134.3,417.1L134.3,417.1z"/>
	</g>
	<g>
		<path class="st0" d="M505.8,528.6c0,15.4-12.4,27.9-27.9,27.9c-15.4-0.1-27.9-12.4-27.9-27.9s12.4-27.9,27.9-27.9
			S505.8,513.2,505.8,528.6z"/>
	</g>
	<g>
		
			<ellipse transform="matrix(0.8345 -0.551 0.551 0.8345 -227.5253 299.6361)" class="st0" cx="385.1" cy="528.6" rx="27.9" ry="27.9"/>
	</g>
	<g>
		
			<ellipse transform="matrix(0.8774 -0.4798 0.4798 0.8774 -52.4163 257.7053)" class="st0" cx="477.9" cy="231.4" rx="27.9" ry="27.9"/>
	</g>
	<g>
		<path class="st0" d="M412.9,231.5c0,15.4-12.4,27.8-27.9,27.8c-15.4,0-27.9-12.4-27.9-27.9s12.4-27.8,27.9-27.8
			C400.5,203.6,412.9,216,412.9,231.5z"/>
	</g>
</g>
<g>
	<g>
		<g>
			<path class="st1" d="M543.4,170c-4,0-9.2-1.3-11.8-5.3L475,108.2c-6.6-6.6-6.6-18.4,0-24.9c6.6-6.6,18.5-6.6,25,0l55.3,56.5
				c6.6,6.6,6.6,18.4,0,24.9C552.6,168.7,547.4,170,543.4,170z"/>
		</g>
		<g>
			<path class="st1" d="M543.4,170c-2.7,0-6.6-1.3-9.2-2.6c-7.9-5.3-10.5-15.8-5.3-24.9l79-134c5.3-7.8,15.8-10.5,23.7-6.6
				c7.9,5.3,10.5,15.8,6.6,24.9l-80.3,134.1C555.3,167.4,548.6,170,543.4,170z"/>
		</g>
	</g>
</g>
</svg>
