<?xml version="1.0" encoding="utf-8"?>
<!-- Generator: Adobe Illustrator 25.0.0, SVG Export Plug-In . SVG Version: 6.00 Build 0)  -->
<svg version="1.1" id="Layer_1" xmlns="http://www.w3.org/2000/svg" xmlns:xlink="http://www.w3.org/1999/xlink" x="0px" y="0px"
	 viewBox="0 0 32 32" style="enable-background:new 0 0 32 32;" xml:space="preserve">
<style type="text/css">
	.st0{fill:#FAF9F6;}
</style>
<g>
	<path class="st0" d="M28.3,24.2V16c0-0.5-0.4-0.8-0.8-0.8h-4.4c-0.3,0-0.5-0.2-0.5-0.5v-3c0-0.3,0.2-0.5,0.5-0.5h4.1
		c0.5,0,0.8-0.4,0.8-0.8V2c0-0.5-0.4-0.8-0.8-0.8H4.8C4.4,1.2,4,1.6,4,2v8.3c0,0.5,0.4,0.8,0.8,0.8h4.1c0.3,0,0.5,0.2,0.5,0.5v3
		c0,0.3-0.2,0.5-0.5,0.5H4.5c-0.5,0-0.8,0.4-0.8,0.8v8.2c0,0.3-0.2,0.5-0.5,0.5H0.8c-0.5,0-0.8,0.4-0.8,0.8v4.3
		c0,0.5,0.4,0.8,0.8,0.8h7.3c0.5,0,0.8-0.4,0.8-0.8v-4.3c0-0.5-0.4-0.8-0.8-0.8H5.8c-0.3,0-0.5-0.2-0.5-0.5v-6.9
		c0-0.3,0.2-0.5,0.5-0.5h4.4c0.5,0,0.8-0.4,0.8-0.8v-4.3c0-0.3,0.2-0.5,0.5-0.5h3.1c0.3,0,0.5,0.2,0.5,0.5v12.2
		c0,0.5-0.4,0.8-0.8,0.8h-2c-0.5,0-0.8,0.4-0.8,0.8v4.3c0,0.5,0.4,0.8,0.8,0.8h7.3c0.5,0,0.8-0.4,0.8-0.8v-4.3
		c0-0.5-0.4-0.8-0.8-0.8h-2c-0.5,0-0.8-0.4-0.8-0.8V11.7c0-0.3,0.2-0.5,0.5-0.5h3.1c0.3,0,0.5,0.2,0.5,0.5V16c0,0.5,0.4,0.8,0.8,0.8
		h4.4c0.3,0,0.5,0.2,0.5,0.5v6.9c0,0.3-0.2,0.5-0.5,0.5h-2.4c-0.5,0-0.8,0.4-0.8,0.8v4.3c0,0.5,0.4,0.8,0.8,0.8h7.3
		c0.5,0,0.8-0.4,0.8-0.8v-4.3c0-0.5-0.4-0.8-0.8-0.8h-2.4C28.5,24.7,28.3,24.5,28.3,24.2z M7.4,26.8v1.8c0,0.3-0.2,0.5-0.5,0.5H2.1
		c-0.3,0-0.5-0.2-0.5-0.5v-1.8c0-0.3,0.2-0.5,0.5-0.5h4.8C7.2,26.3,7.4,26.6,7.4,26.8z M18.9,26.8v1.8c0,0.3-0.2,0.5-0.5,0.5h-4.8
		c-0.3,0-0.5-0.2-0.5-0.5v-1.8c0-0.3,0.2-0.5,0.5-0.5h4.8C18.7,26.3,18.9,26.6,18.9,26.8z M5.6,9.1V3.3c0-0.3,0.2-0.5,0.5-0.5h19.8
		c0.3,0,0.5,0.2,0.5,0.5v5.8c0,0.3-0.2,0.5-0.5,0.5H6.1C5.8,9.6,5.6,9.4,5.6,9.1z M29.9,29.1h-4.8c-0.3,0-0.5-0.2-0.5-0.5v-1.8
		c0-0.3,0.2-0.5,0.5-0.5h4.8c0.3,0,0.5,0.2,0.5,0.5v1.8C30.4,28.9,30.2,29.1,29.9,29.1z"/>
	<path class="st0" d="M15.1,6.2c0,0.4-0.4,0.8-0.8,0.8H7.9C7.5,7,7.1,6.6,7.1,6.2s0.4-0.8,0.8-0.8h6.4C14.7,5.4,15.1,5.8,15.1,6.2z"
		/>
	<circle class="st0" cx="17.7" cy="6.2" r="0.8"/>
	<path class="st0" d="M24.9,6.2c0,0.4-0.4,0.8-0.8,0.8s-0.8-0.4-0.8-0.8s0.4-0.8,0.8-0.8S24.9,5.8,24.9,6.2z"/>
	<path class="st0" d="M21.7,6.2c0,0.4-0.4,0.8-0.8,0.8s-0.8-0.4-0.8-0.8s0.4-0.8,0.8-0.8S21.7,5.8,21.7,6.2z"/>
</g>
</svg>
