<?xml version="1.0" encoding="utf-8"?>
<!-- Generator: Adobe Illustrator 25.0.0, SVG Export Plug-In . SVG Version: 6.00 Build 0)  -->
<svg version="1.1" id="Layer_1" xmlns="http://www.w3.org/2000/svg" xmlns:xlink="http://www.w3.org/1999/xlink" x="0px" y="0px"
	 viewBox="0 0 16 13" style="enable-background:new 0 0 16 13;" xml:space="preserve">
<style type="text/css">
	.st0{fill:#FAF9F6;}
</style>
<g>
	<g>
		<g>
			<path class="st0" d="M15.1,11.4l-1.5,1.5c0,0-0.2,0.2-0.4,0.2h-0.4c-0.1,0-0.2-0.1-0.2-0.1h0l-0.1-0.1L11,11.4
				c-0.3-0.3-0.3-0.8,0-1.1c0.1-0.1,0.3-0.2,0.6-0.2c0.2,0,0.4,0.1,0.6,0.2l0.1,0.1V8c0-0.4,0.3-0.8,0.8-0.8c0.4,0,0.8,0.3,0.8,0.8
				v2.4l0.1-0.1c0.1-0.1,0.3-0.2,0.6-0.2c0.2,0,0.4,0.1,0.6,0.2C15.3,10.6,15.3,11.1,15.1,11.4z"/>
			<path class="st0" d="M9.6,9.3c0,0.5-0.4,0.8-0.9,0.8H8.4c-0.4,0-0.8-0.3-0.8-0.8c0-0.5,0.3-0.8,0.8-0.8h0.4
				C9.2,8.5,9.6,8.8,9.6,9.3z"/>
			<path class="st0" d="M7.5,9.4c0,0.4-0.4,0.7-0.9,0.7H3.6c-0.4,0-0.7-0.3-0.7-0.7c0-0.4,0.3-0.8,0.8-0.8h2.9
				C7,8.6,7.5,8.9,7.5,9.4z"/>
		</g>
	</g>
	<g>
		<g>
			<path class="st0" d="M16,5.2c0,0,0-0.1,0-0.1c0-0.1,0-0.1,0-0.2c0-0.6-0.1-1.2-0.2-1.7c-0.1-0.9-0.4-1.6-0.9-2.2
				c-0.6-0.6-1.2-0.8-2.2-0.9C11.9,0,10.8,0,9.5,0H6.5C5.2,0,4.1,0,3.2,0.1C2.3,0.2,1.6,0.5,1,1C0.5,1.5,0.2,2.3,0.1,3.3
				C0,3.7,0,4.3,0,4.9c0,0,0,0,0,0C0,5,0,5.1,0,5.2v0C0,5.6,0,6,0,6.5C0,8,0,9,0.2,9.8c0.1,0.9,0.4,1.6,0.9,2.2
				c0.6,0.6,1.2,0.8,2.2,0.9C4.1,13,5.2,13,6.5,13h2.9c0.4,0,0.7-0.3,0.7-0.7c0-0.5-0.4-0.8-0.8-0.8H6.4c-2.5,0-3.8,0-4.4-0.6
				c-0.6-0.6-0.6-1.9-0.6-4.4V5.9h12.9v0.6c0,0.5,0.4,0.8,0.8,0.8c0.5,0,0.8-0.4,0.8-0.8C16,6,16,5.6,16,5.2C16,5.2,16,5.2,16,5.2z
				 M1.5,4.2c0-1.1,0.2-1.7,0.6-2.1C2.7,1.5,4,1.5,6.4,1.5h2.9c2.5,0,3.8,0,4.4,0.6c0.4,0.4,0.5,1,0.6,2.1H1.5z"/>
			<path class="st0" d="M0,5c0,0,0,0.1,0,0.1C0,5.1,0,5,0,4.9C0,5,0,5,0,5z"/>
		</g>
	</g>
</g>
</svg>
