<?xml version="1.0" encoding="utf-8"?>
<!-- Generator: Adobe Illustrator 25.0.0, SVG Export Plug-In . SVG Version: 6.00 Build 0)  -->
<svg version="1.1" id="Layer_1" xmlns="http://www.w3.org/2000/svg" xmlns:xlink="http://www.w3.org/1999/xlink" x="0px" y="0px"
	 viewBox="0 0 16 16" style="enable-background:new 0 0 16 16;" xml:space="preserve">
<style type="text/css">
	.st0{fill:#FAF9F6;}
</style>
<g>
	<path class="st0" d="M14.3,0H4.2C3.3,0,2.5,0.8,2.5,1.7v0.9H1.7C0.8,2.5,0,3.3,0,4.2v10.1C0,15.2,0.8,16,1.7,16h10.1
		c0.9,0,1.7-0.8,1.7-1.7v-0.9h0.9c0.9,0,1.7-0.8,1.7-1.7V1.7C16,0.8,15.2,0,14.3,0z M11.8,14.3H1.7V4.2h10.1V14.3z M14.3,11.8h-0.9
		V4.2c0-0.9-0.8-1.7-1.7-1.7H4.2V1.7h10.1V11.8z"/>
</g>
</svg>
