<?xml version="1.0" encoding="utf-8"?>
<!-- Generator: Adobe Illustrator 25.0.0, SVG Export Plug-In . SVG Version: 6.00 Build 0)  -->
<svg version="1.1" id="Layer_1" xmlns="http://www.w3.org/2000/svg" xmlns:xlink="http://www.w3.org/1999/xlink" x="0px" y="0px"
	 viewBox="0 0 16 16" style="enable-background:new 0 0 16 16;" xml:space="preserve">
<style type="text/css">
	.st0{fill-rule:evenodd;clip-rule:evenodd;fill:#FAF9F6;}
</style>
<path class="st0" d="M2.1,16C1,16,0,15,0,13.9V2.1C0,1,1,0,2.1,0h10.5c0.4,0,0.7,0.2,0.9,0.4l2.1,2.1C15.9,2.8,16,3,16,3.4v10.5
	c0,1.1-1,2.1-2.1,2.1H2.1z M10.9,8.1c1.1,0,2.1,1,2.1,2.1v4.6h0.8c0.5,0,0.8-0.4,0.8-0.8V4.1c0-0.5-0.2-0.9-0.4-1.1L13,1.7
	c-0.3-0.3-0.6-0.4-1.1-0.4h-0.1l-0.1,0.1v1.5c0,1.1-1,2.1-2.1,2.1h-3c-1.1,0-2.1-1-2.1-2.1V1.3H2.1c-0.5,0-0.8,0.4-0.8,0.8v11.8
	c0,0.5,0.4,0.8,0.8,0.8h0.8v-4.6c0-1.1,1-2,2.1-2H10.9z M5.1,9.3c-0.5,0-0.8,0.4-0.8,0.8v4.6h7.6v-4.6c0-0.5-0.4-0.8-0.8-0.8H5.1z
	 M5.6,2.9c0,0.5,0.4,0.8,0.8,0.8h3c0.5,0,0.8-0.4,0.8-0.8V1.3H5.6V2.9z"/>
</svg>
