<?xml version="1.0" encoding="utf-8"?>
<!-- Generator: Adobe Illustrator 28.0.0, SVG Export Plug-In . SVG Version: 6.00 Build 0)  -->
<svg version="1.1" id="Layer_1" xmlns="http://www.w3.org/2000/svg" xmlns:xlink="http://www.w3.org/1999/xlink" x="0px" y="0px"
	 viewBox="0 0 640 640" style="enable-background:new 0 0 640 640;" xml:space="preserve">
<style type="text/css">
	.st0{fill:#FAF9F6;}
</style>
<path class="st0" d="M520,260c0,57.4-18.6,110.4-50,153.4l158.3,158.4c15.6,15.6,15.6,41,0,56.6c-15.6,15.6-41,15.6-56.6,0
	L413.4,469.9c-43,31.4-96,50-153.4,50C116.4,519.9,0,403.6,0,260S116.4,0,260,0S520,116.4,520,260z M260,439.9
	c99.4,0,180-80.6,180-180S359.4,80,260,80S80,160.6,80,260S160.6,439.9,260,439.9z"/>
</svg>
