<?xml version="1.0" encoding="utf-8"?>
<!-- Generator: Adobe Illustrator 25.0.0, SVG Export Plug-In . SVG Version: 6.00 Build 0)  -->
<svg version="1.1" id="Layer_1" xmlns="http://www.w3.org/2000/svg" xmlns:xlink="http://www.w3.org/1999/xlink" x="0px" y="0px"
	 viewBox="0 0 32 26" style="enable-background:new 0 0 32 26;" xml:space="preserve">
<style type="text/css">
	.st0{fill:#FAF9F6;}
</style>
<path class="st0" d="M30,0H2C0.9,0,0,0.9,0,2v22c0,1.1,0.9,2,2,2h28c1.1,0,2-0.9,2-2V2C32,0.9,31.1,0,30,0z M28,23H4
	c-0.5,0-1-0.4-1-1v-2.2c0-0.5,0.4-1,1-1h24c0.5,0,1,0.4,1,1V22C29,22.6,28.6,23,28,23z M28,15.8H4c-0.5,0-1-0.4-1-1v-3.7
	c0-0.5,0.4-1,1-1h24c0.5,0,1,0.4,1,1v3.7C29,15.4,28.6,15.8,28,15.8z M12.5,6.2V4c0-0.6,0.4-1,1-1H28c0.6,0,1,0.4,1,1v2.2
	c0,0.6-0.4,1-1,1H13.5C13,7.2,12.5,6.7,12.5,6.2z"/>
</svg>
