<?xml version="1.0" encoding="utf-8"?>
<!-- Generator: Adobe Illustrator 25.0.0, SVG Export Plug-In . SVG Version: 6.00 Build 0)  -->
<svg version="1.1" id="Layer_1" xmlns="http://www.w3.org/2000/svg" xmlns:xlink="http://www.w3.org/1999/xlink" x="0px" y="0px"
	 viewBox="0 0 40 50" style="enable-background:new 0 0 40 50;" xml:space="preserve">
<style type="text/css">
	.st0{fill:#FAF9F6;}
	.st1{fill:#FAF9F6;stroke:#FFFFFF;stroke-width:2;stroke-linecap:round;stroke-miterlimit:10;}
</style>
<g>
	<g>
		<g>
			<path class="st0" d="M8.1,40c-5.5-3.8-7.9-9.3-6.4-13.9l1.9,0.6c-1.3,3.7,1,8.4,5.7,11.6L8.1,40z"/>
		</g>
		<g>
			<g>
				<polygon class="st0" points="8.2,35.1 8.4,38.9 5.3,40.9 13.8,41.7 				"/>
			</g>
		</g>
	</g>
</g>
<g>
	<path class="st0" d="M22.4,19.6l-7,7C15,27,14.8,27.5,14.8,28v20.1c0,1.1,0.9,1.9,1.9,1.9H38c1.1,0,1.9-0.9,1.9-1.9V20.9
		c0-1.1-0.9-1.9-1.9-1.9H23.7C23.2,19,22.8,19.2,22.4,19.6z M17.7,31.3h7.5c1.1,0,1.9-0.9,1.9-1.9v-7.5h10v25.2H17.7V31.3z
		 M17.7,28.4l6.5-6.5v6.5H17.7z"/>
	<line class="st1" x1="21.2" y1="33.1" x2="33.6" y2="33.1"/>
	<line class="st1" x1="23.9" y1="37.1" x2="33.6" y2="37.1"/>
	<line class="st1" x1="21.2" y1="41.1" x2="33.6" y2="41.1"/>
</g>
<path class="st0" d="M19.9,22.3h-16c-0.5,0-1-0.4-1-1v-2.1c0-0.5,0.4-1,1-1h23.2c0.5,0,1,0.4,1,1v0.1h2.8V2c0.1-1.1-0.8-2-1.8-2H1.9
	C0.8,0,0,0.9,0,1.9v21.3c0,1.1,0.9,1.9,1.9,1.9h15.2L19.9,22.3z M12.1,3.9c0-0.6,0.4-1,1-1h14c0.6,0,1,0.4,1,1V6c0,0.6-0.4,1-1,1
	h-14c-0.5,0-1-0.5-1-1V3.9z M2.9,10.7c0-0.5,0.4-1,1-1h23.2c0.5,0,1,0.4,1,1v3.6c0,0.6-0.4,1-1,1H3.9c-0.5,0-1-0.4-1-1V10.7z"/>
</svg>
