<?xml version="1.0" encoding="utf-8"?>
<!-- Generator: Adobe Illustrator 25.0.0, SVG Export Plug-In . SVG Version: 6.00 Build 0)  -->
<svg version="1.1" id="Layer_1" xmlns="http://www.w3.org/2000/svg" xmlns:xlink="http://www.w3.org/1999/xlink" x="0px" y="0px"
	 viewBox="0 0 50 50" style="enable-background:new 0 0 50 50;" xml:space="preserve">
<style type="text/css">
	.st0{fill:#1D1D1B;}
	.st1{fill:#FFFFFF;}
</style>
<g>
	<path class="st0" d="M25,2C12.3,2,2,12.3,2,25s10.3,23,23,23s23-10.3,23-23S37.7,2,25,2z M35.6,17.6c-0.3,2.6-2.3,15.5-2.7,16.8
		c-0.3,1.1-0.8,2.1-1.5,2.1c-0.7,0-1.5-0.2-2.3-0.8c-0.8-0.6-6-4-6.7-4.5c-0.7-0.4-1.3-1.4-0.4-2.4c0.8-0.8,6.7-6.5,7.2-7
		s0-1.1-0.6-0.6c-0.6,0.5-9.2,6.2-9.9,6.7c-0.7,0.4-1.9,0.7-3,0.4c-1.1-0.3-3-0.9-3.8-1.2c-0.7-0.3-1-0.5-1-1c0-0.7,0.9-1.1,1.9-1.5
		c1-0.4,18.4-7.8,19.8-8.3c1-0.3,1.8-0.5,2.4-0.2C35.4,16.3,35.7,16.8,35.6,17.6z"/>
	<path class="st1" d="M35.6,17.6c-0.3,2.6-2.3,15.5-2.7,16.8c-0.3,1.1-0.8,2.1-1.5,2.1c-0.7,0-1.5-0.2-2.3-0.8c-0.8-0.6-6-4-6.7-4.5
		c-0.7-0.4-1.3-1.4-0.4-2.4c0.8-0.8,6.7-6.5,7.2-7s0-1.1-0.6-0.6c-0.6,0.5-9.2,6.2-9.9,6.7c-0.7,0.4-1.9,0.7-3,0.4
		c-1.1-0.3-3-0.9-3.8-1.2c-0.7-0.3-1-0.5-1-1c0-0.7,0.9-1.1,1.9-1.5c1-0.4,18.4-7.8,19.8-8.3c1-0.3,1.8-0.5,2.4-0.2
		C35.4,16.3,35.7,16.8,35.6,17.6z"/>
</g>
</svg>
