<?xml version="1.0" encoding="utf-8"?>
<!-- Generator: Adobe Illustrator 25.0.0, SVG Export Plug-In . SVG Version: 6.00 Build 0)  -->
<svg version="1.1" id="Layer_1" xmlns="http://www.w3.org/2000/svg" xmlns:xlink="http://www.w3.org/1999/xlink" x="0px" y="0px"
	 viewBox="0 0 40 50" style="enable-background:new 0 0 40 50;" xml:space="preserve">
<style type="text/css">
	.st0{fill:#FAF9F6;}
</style>
<g>
	<g>
		<path class="st0" d="M38.1,24.8H10.9c-1.1,0-1.9,0.9-1.9,1.9V48c0,1.1,0.9,1.9,1.9,1.9H38c1.1,0,1.9-0.9,1.9-1.9V26.8
			C40,25.7,39.1,24.8,38.1,24.8z M36.1,47.1H12.9c-0.5,0-1-0.4-1-1V44c0-0.5,0.4-1,1-1h23.2c0.5,0,1,0.4,1,1v2.1
			C37.1,46.7,36.7,47.1,36.1,47.1z M36.1,40.1H12.9c-0.5,0-1-0.4-1-1v-3.6c0-0.5,0.4-1,1-1h23.2c0.5,0,1,0.4,1,1v3.6
			C37.1,39.7,36.7,40.1,36.1,40.1z M21.1,30.8v-2.1c0-0.6,0.4-1,1-1h14c0.6,0,1,0.4,1,1v2.1c0,0.6-0.4,1-1,1h-14
			C21.6,31.8,21.1,31.3,21.1,30.8z"/>
	</g>
	<g>
		<g>
			<path class="st0" d="M18.8,15.6H6.4c-0.6,0-1-0.4-1-1s0.4-1,1-1h12.4c0.6,0,1,0.4,1,1S19.4,15.6,18.8,15.6z"/>
		</g>
		<g>
			<path class="st0" d="M16.1,19.6H6.4c-0.6,0-1-0.4-1-1s0.4-1,1-1h9.7c0.6,0,1,0.4,1,1S16.7,19.6,16.1,19.6z"/>
		</g>
		<g>
			<path class="st0" d="M18.8,23.5H6.4c-0.6,0-1-0.4-1-1s0.4-1,1-1h12.4c0.6,0,1,0.4,1,1S19.4,23.5,18.8,23.5z"/>
		</g>
	</g>
	<path class="st0" d="M9,28.1H2.9V2.9h10v7.5c0,1.1,0.9,1.9,1.9,1.9h7.5v12.5h2.9V8.9c0-0.5-0.2-1-0.6-1.4l-7-7
		C17.2,0.2,16.8,0,16.3,0H1.9C0.9,0,0,0.9,0,1.9V29c0,1.1,0.9,2,1.9,2H9V28.1z M15.8,2.9l6.5,6.5h-6.5C15.8,9.4,15.8,2.9,15.8,2.9z"
		/>
	<g>
		<g>
			<g>
				<path class="st0" d="M35.3,18.5c-1.5-5.4-5.2-9.1-9.1-9.1v-2c4.9,0,9.3,4.1,11.1,10.5L35.3,18.5z"/>
			</g>
			<g>
				<g>
					<polygon class="st0" points="37,23.8 39,15.5 36.1,17.8 32.6,16.4 					"/>
				</g>
			</g>
		</g>
	</g>
</g>
</svg>
