<?xml version="1.0" encoding="utf-8"?>
<!-- Generator: Adobe Illustrator 25.0.0, SVG Export Plug-In . SVG Version: 6.00 Build 0)  -->
<svg version="1.1" id="Layer_1" xmlns="http://www.w3.org/2000/svg" xmlns:xlink="http://www.w3.org/1999/xlink" x="0px" y="0px"
	 viewBox="0 0 50 50" style="enable-background:new 0 0 50 50;" xml:space="preserve">
<style type="text/css">
	.st0{fill:#FAF9F6;}
</style>
<g>
	<g>
		<path class="st0" d="M23.1,48.5c-3.7,0-7.5-0.9-10.8-2.7c-4.9-2.6-8.7-7-10.7-12.3c-2-5.3-2.1-11.1-0.2-16.4S7,7.3,11.8,4.5
			c4.9-2.8,10.5-3.7,16-2.5c5.4,1.1,10.3,4.3,13.7,8.7c2.2,2.9,3.6,6.2,4.3,9.7c1-0.9,2.5-0.9,3.5,0.1c1,1,1,2.7,0,3.7l-3.8,3.9
			c-0.3,0.3-0.6,0.5-0.9,0.6c-0.3,0.1-0.7,0.2-1.1,0.2c0,0-0.1,0-0.1,0l0,0c0,0,0,0,0,0c0,0,0,0,0,0c0,0,0,0,0,0l0,0
			c-0.3,0-0.5-0.1-0.8-0.2c0,0,0,0,0,0c0,0,0,0,0,0c-0.2-0.1-0.4-0.2-0.6-0.4c0,0,0,0,0,0c0,0,0,0,0,0c-0.1-0.1-0.1-0.1-0.2-0.2
			l-3.8-3.9c-1-1-1-2.7,0-3.7c0.7-0.7,1.6-0.9,2.4-0.7c-0.6-2.1-1.6-4.1-3-5.9C34.7,10.4,31,8,26.7,7.1c-4.2-0.9-8.6-0.2-12.4,1.9
			c-3.8,2.1-6.7,5.6-8.1,9.7s-1.4,8.7,0.1,12.8s4.5,7.5,8.3,9.5c3.8,2.1,8.2,2.6,12.5,1.7c4.2-1,7.9-3.5,10.5-7.1
			c0.8-1.2,2.4-1.4,3.6-0.6c1.1,0.8,1.4,2.5,0.6,3.6c-3.3,4.6-8.1,7.8-13.5,9.1C26.6,48.3,24.8,48.5,23.1,48.5z"/>
	</g>
	<g>
		<path class="st0" d="M28.2,34.4c-0.7,0-1.3-0.3-1.8-0.8l-7.7-7.8c-0.5-0.5-0.8-1.2-0.8-1.8V13.5c0-1.4,1.1-2.6,2.6-2.6
			c1.4,0,2.6,1.2,2.6,2.6v9.4l6.9,7.1c1,1,1,2.7,0,3.7C29.5,34.1,28.9,34.4,28.2,34.4z"/>
	</g>
</g>
</svg>
